<?xml version="1.0" encoding="utf-8"?>
<!-- Generator: Adobe Illustrator 21.0.2, SVG Export Plug-In . SVG Version: 6.00 Build 0)  -->
<svg version="1.1" id="Layer_1" xmlns="http://www.w3.org/2000/svg" xmlns:xlink="http://www.w3.org/1999/xlink" x="0px" y="0px"
	 viewBox="0 0 380 415" style="enable-background:new 0 0 380 415;" xml:space="preserve">
<style type="text/css">
	.st0{fill:#FBD24A;}
</style>
<path class="st0" d="M201,265.3c-1.1,0-2.1-0.1-3.2-0.3c-11.7-2-20.7-15.1-31.1-30.4c-1.8-2.6-3.6-5.3-5.5-7.9
	c-1.9-2.7-3.8-5.3-5.6-7.8c-10.8-14.9-20.1-27.8-18.3-39.9c1-6.5,5.2-12.4,12.8-18.1c12.7-9.4,28.2-13.1,43.6-10.6
	s29,11.1,38.1,24.1c9.2,13,12.8,28.8,10.3,44.7c-2.5,15.8-10.9,29.7-23.6,39.1C212.3,263,206.5,265.3,201,265.3z M184.3,150.3
	c-12,0-23.8,3.9-33.7,11.2c-7.5,5.5-11.6,11.3-12.6,17.6c-1.8,11.7,7.5,24.5,18.2,39.3c1.8,2.5,3.7,5.2,5.6,7.8
	c1.9,2.7,3.7,5.3,5.5,7.9c10.3,15.1,19.3,28.1,30.7,30.1c6.2,1.1,12.8-1.1,20.3-6.6c12.6-9.3,20.8-23,23.3-38.6
	c2.5-15.6-1.1-31.3-10.2-44.2c-9-12.8-22.4-21.3-37.7-23.8C190.5,150.6,187.4,150.3,184.3,150.3z"/>
<path class="st0" d="M203.7,279.3c-1.3,0-2.7-0.1-4-0.3c-14.5-2.5-25.7-18.8-38.6-37.7c-2.2-3.2-4.5-6.5-6.8-9.8
	c-2.3-3.3-4.7-6.6-7-9.7c-13.4-18.5-25-34.5-22.7-49.4c1.2-8.1,6.4-15.4,15.9-22.4c15.8-11.6,35-16.3,54.1-13.1
	c19.1,3.2,36,13.8,47.3,29.9c11.4,16.1,15.9,35.8,12.8,55.4c-3.1,19.6-13.5,36.8-29.2,48.5C217.6,276.4,210.4,279.3,203.7,279.3z
	 M182.9,136.6c-15,0-29.5,4.8-41.9,13.9c-9.3,6.9-14.4,14-15.6,21.9c-2.2,14.5,9.3,30.4,22.5,48.8c2.3,3.1,4.6,6.4,7,9.7
	c2.3,3.4,4.6,6.6,6.8,9.8c12.8,18.7,23.9,34.9,38.1,37.3c7.6,1.3,15.9-1.4,25.2-8.3c15.6-11.5,25.8-28.5,28.9-47.9
	c3.1-19.4-1.4-38.9-12.6-54.8c-11.2-15.9-27.8-26.4-46.8-29.6C190.6,136.9,186.7,136.6,182.9,136.6z"/>
<path class="st0" d="M206.2,292.3c-1.6,0-3.1-0.1-4.7-0.4c-17.2-3-30.4-22.2-45.7-44.5c-2.6-3.8-5.3-7.7-8.1-11.6
	c-2.8-3.9-5.5-7.8-8.2-11.5c-15.8-21.9-29.5-40.8-26.8-58.4c1.5-9.6,7.6-18.2,18.8-26.5c18.6-13.7,41.3-19.2,64-15.5
	c22.6,3.8,42.5,16.3,55.9,35.4c13.4,19,18.8,42.3,15.1,65.5c-3.7,23.2-15.9,43.5-34.5,57.3C222.6,288.9,214.1,292.3,206.2,292.3z
	 M181.6,123.7c-17.7,0-34.9,5.7-49.5,16.4c-11,8.1-17,16.6-18.4,25.8c-2.6,17.2,10.9,36,26.7,57.7c2.7,3.7,5.5,7.6,8.2,11.5
	c2.8,4,5.5,7.8,8.1,11.6c15.2,22.1,28.3,41.2,45.1,44.1c9,1.5,18.8-1.6,29.8-9.7c18.4-13.6,30.5-33.7,34.1-56.6
	c3.6-22.9-1.7-45.9-15-64.8c-13.3-18.9-32.9-31.2-55.3-35C190.7,124.1,186.1,123.7,181.6,123.7z"/>
<path class="st0" d="M208.5,304.5c-1.8,0-3.6-0.2-5.3-0.4c-19.6-3.4-34.7-25.4-52.2-50.9c-3-4.3-6-8.8-9.2-13.3
	c-3.2-4.5-6.3-8.9-9.4-13.1c-18.1-25.1-33.8-46.7-30.7-66.8c1.6-10.9,8.7-20.8,21.5-30.3c21.3-15.7,47.3-22,73.2-17.7
	c25.9,4.3,48.6,18.7,63.9,40.5c15.3,21.8,21.5,48.4,17.3,74.9c-4.2,26.5-18.2,49.8-39.5,65.5C227.3,300.6,217.6,304.5,208.5,304.5z
	 M180.4,111.7c-20.2,0-39.9,6.5-56.6,18.8c-12.6,9.3-19.5,18.9-21.1,29.6c-3,19.7,12.5,41.1,30.5,66c3.1,4.2,6.2,8.6,9.4,13.2
	s6.2,9,9.2,13.3c17.3,25.3,32.3,47.1,51.5,50.4c10.3,1.8,21.5-1.9,34.1-11.1c21.1-15.5,34.9-38.5,39.1-64.7
	c4.2-26.2-1.9-52.5-17.1-74.1c-15.2-21.5-37.6-35.7-63.2-40C190.9,112.1,185.6,111.7,180.4,111.7z"/>
<path class="st0" d="M211,317.7c-2.1,0-4.1-0.2-6.1-0.5c-22.3-3.9-39.5-28.9-59.4-57.8c-3.4-4.9-6.8-10-10.5-15.1
	c-3.6-5.1-7.2-10.1-10.7-14.9c-20.6-28.5-38.3-53-34.9-75.9c1.9-12.4,9.9-23.7,24.4-34.4c24.2-17.8,53.7-25,83.1-20.1
	c29.4,4.9,55.2,21.2,72.7,46c17.4,24.8,24.4,55,19.7,85.1c-4.8,30.1-20.7,56.6-44.9,74.4C232.4,313.3,221.4,317.7,211,317.7z
	 M179.1,98.6c-23,0-45.3,7.3-64.3,21.4c-14.3,10.5-22.1,21.5-23.9,33.6c-3.4,22.4,14.2,46.7,34.6,75c3.5,4.8,7.1,9.8,10.7,14.9
	c3.6,5.1,7.1,10.2,10.5,15.1c19.7,28.8,36.7,53.5,58.5,57.3c11.7,2,24.4-2.1,38.7-12.7c23.9-17.6,39.7-43.8,44.4-73.6
	c4.7-29.8-2.2-59.7-19.4-84.1c-17.2-24.5-42.7-40.6-71.8-45.4C191,99.1,185,98.6,179.1,98.6z"/>
<path class="st0" d="M213.6,331.4c-2.3,0-4.6-0.2-6.8-0.6c-25.1-4.3-44.4-32.5-66.8-65.1c-3.8-5.5-7.7-11.2-11.8-17
	s-8.1-11.4-12-16.8c-23.1-32-43.1-59.7-39.2-85.4c2.1-13.9,11.1-26.6,27.5-38.7c27.2-20.1,60.4-28.1,93.5-22.6
	c33.1,5.5,62.1,23.8,81.7,51.7s27.5,61.8,22.1,95.7c-5.4,33.9-23.3,63.6-50.5,83.7C237.7,326.4,225.3,331.4,213.6,331.4z M177.7,85
	c-25.8,0-50.9,8.3-72.3,24c-16,11.9-24.9,24.2-26.9,37.8c-3.8,25.1,16,52.6,39,84.3c3.9,5.4,8,11,12,16.8c4.1,5.8,8,11.5,11.8,17
	c22.2,32.3,41.3,60.3,65.8,64.5c13.2,2.3,27.5-2.4,43.5-14.2c26.9-19.9,44.6-49.2,49.9-82.7c5.3-33.5-2.5-67.1-21.8-94.6
	c-19.4-27.5-48.1-45.7-80.8-51.1C191.1,85.6,184.4,85,177.7,85z"/>
<path class="st0" d="M216.3,345.3c-2.6,0-5.1-0.2-7.6-0.6c-27.9-4.8-49.4-36.1-74.2-72.3c-4.2-6.1-8.6-12.5-13.1-18.9
	c-4.5-6.4-9-12.7-13.4-18.7c-25.7-35.6-48-66.3-43.6-94.9c2.3-15.5,12.4-29.6,30.6-43.1c30.2-22.3,67.1-31.2,104-25.2
	c36.8,6.1,69.1,26.5,90.9,57.5c21.8,31,30.5,68.8,24.6,106.4c-6,37.7-25.9,70.7-56.1,93C243,339.8,229.2,345.3,216.3,345.3z
	 M176.3,71.3c-28.7,0-56.7,9.2-80.4,26.7c-17.8,13.2-27.6,26.9-29.9,42c-4.2,28,17.8,58.4,43.3,93.7c4.4,6,8.9,12.3,13.4,18.7
	c4.5,6.4,8.9,12.7,13.1,18.9c24.7,35.9,45.9,67,73.2,71.7c14.7,2.5,30.5-2.7,48.4-15.8c29.9-22.1,49.6-54.7,55.5-92
	c5.9-37.3-2.7-74.6-24.3-105.2c-21.6-30.6-53.5-50.8-89.8-56.8C191.2,71.9,183.7,71.3,176.3,71.3z"/>
<path class="st0" d="M218.9,359c-2.8,0-5.6-0.3-8.3-0.7c-30.7-5.3-54.3-39.7-81.6-79.5c-4.6-6.8-9.4-13.7-14.4-20.8
	c-4.9-7-9.9-13.9-14.7-20.5C71.6,198.3,47.1,164.5,51.9,133c2.6-17.1,13.6-32.5,33.6-47.3c33.3-24.5,73.8-34.4,114.3-27.7
	c40.5,6.7,75.9,29.2,99.9,63.2c24,34,33.6,75.6,27,117c-6.6,41.4-28.5,77.8-61.7,102.3C248.3,352.9,233.1,359,218.9,359z
	 M174.9,57.8c-31.6,0-62.3,10.1-88.4,29.4c-19.6,14.5-30.4,29.6-32.9,46.2c-4.7,30.7,19.6,64.3,47.6,103.1
	c4.8,6.6,9.8,13.5,14.7,20.6c4.9,7.1,9.8,14,14.4,20.8c27.1,39.5,50.5,73.6,80.5,78.8c16.1,2.8,33.5-2.9,53.2-17.4
	c32.9-24.3,54.5-60.2,61-101.1c6.5-41-3-82-26.7-115.7c-23.7-33.7-58.8-55.9-98.8-62.5C191.3,58.4,183.1,57.8,174.9,57.8z"/>
<path class="st0" d="M221.2,371.3c-3,0-6.1-0.3-9-0.8c-33.2-5.7-58.7-42.9-88.3-86c-5-7.3-10.2-14.9-15.5-22.5
	c-5.4-7.6-10.7-15-15.9-22.2c-30.6-42.3-57-78.8-51.8-112.9c2.8-18.5,14.7-35.2,36.4-51.2c36-26.5,79.8-37.2,123.6-29.9
	c43.8,7.2,82.1,31.5,108,68.3C334.6,151,345,196,337.9,240.8c-7.1,44.8-30.8,84.1-66.7,110.6C253.1,364.7,236.6,371.3,221.2,371.3z
	 M173.7,45.6c-34.1,0-67.4,10.9-95.6,31.8c-21.2,15.7-32.9,32-35.6,49.9c-5,33.2,21.1,69.5,51.5,111.5c5.2,7.2,10.6,14.6,15.9,22.2
	c5.4,7.6,10.6,15.2,15.6,22.5c29.3,42.7,54.6,79.6,87,85.2c17.5,3,36.3-3.1,57.5-18.8c35.5-26.3,59-65.1,66-109.4
	c7-44.3-3.3-88.7-28.9-125.1c-25.6-36.4-63.6-60.4-106.8-67.6C191.4,46.3,182.6,45.6,173.7,45.6z"/>
<path class="st0" d="M223.4,382.9c-3.3,0-6.5-0.3-9.6-0.8c-35.5-6.1-62.8-46-94.5-92.1c-5.4-7.8-10.9-15.9-16.6-24
	c-5.7-8.1-11.5-16.1-17-23.8c-32.8-45.3-61-84.4-55.5-120.9c3-19.8,15.7-37.7,38.9-54.8c38.5-28.4,85.5-39.8,132.3-32
	c46.8,7.8,87.9,33.7,115.7,73.2c27.7,39.4,38.9,87.5,31.3,135.5c-7.6,47.9-32.9,90-71.4,118.4C257.5,375.8,239.9,382.9,223.4,382.9z
	 M172.6,34.2c-36.6,0-72.1,11.7-102.4,34C47.5,85,35,102.5,32.1,121.7C26.7,157.2,54.7,196,87.2,241c5.5,7.7,11.3,15.6,17.1,23.8
	c5.7,8.2,11.3,16.2,16.6,24.1c31.4,45.7,58.5,85.2,93.2,91.2c18.7,3.2,38.8-3.4,61.6-20.1c38-28.1,63.1-69.7,70.6-117.1
	c7.5-47.4-3.5-95-30.9-133.9c-27.5-39-68.1-64.6-114.4-72.3C191.5,34.9,182,34.2,172.6,34.2z"/>
<path class="st0" d="M225.5,393.8c-3.5,0-6.9-0.3-10.2-0.9c-37.7-6.5-66.7-48.8-100.4-97.8c-5.7-8.3-11.6-16.9-17.7-25.6
	c-6.1-8.6-12.2-17.1-18.1-25.2c-34.8-48.1-64.8-89.7-59-128.4c3.2-21,16.7-40,41.3-58.2c40.9-30.2,90.8-42.3,140.5-34
	c49.7,8.3,93.4,35.8,122.9,77.7c29.5,41.8,41.3,93,33.2,143.9c-8.1,51-35,95.6-75.9,125.8C261.7,386.3,243,393.8,225.5,393.8z
	 M171.5,23.3c-38.8,0-76.6,12.4-108.7,36.2c-24.1,17.8-37.4,36.4-40.5,56.8c-5.7,37.8,24.1,79,58.6,126.7c5.9,8.2,12,16.6,18.1,25.3
	c6.1,8.7,12,17.2,17.7,25.6c33.3,48.6,62.1,90.6,99,96.9c19.8,3.4,41.2-3.6,65.4-21.4c40.4-29.9,67.1-74,75-124.4
	c8-50.4-3.7-100.9-32.8-142.3C294.1,61.3,250.9,34,201.7,25.8C191.6,24.2,181.5,23.3,171.5,23.3z"/>
<path class="st0" d="M227.4,404c-3.6,0-7.3-0.3-10.8-0.9c-39.8-6.9-70.4-51.5-105.8-103.1c-6-8.8-12.2-17.8-18.6-26.9
	c-6.4-9.1-12.9-18-19.1-26.6C36.4,195.6,4.7,151.8,10.9,111c3.4-22.1,17.6-42.2,43.6-61.4C97.6,17.7,150.2,5,202.7,13.7
	c52.5,8.7,98.5,37.8,129.6,81.9c31.1,44.2,43.5,98,35,151.8c-8.5,53.7-36.9,100.8-80,132.7C265.6,396.1,245.9,404,227.4,404z
	 M170.5,13.3c-41,0-80.8,13.1-114.7,38.1c-25.5,18.8-39.4,38.4-42.7,59.9C7.1,151.2,38.5,194.6,74.9,245
	c6.2,8.6,12.6,17.5,19.1,26.6c6.4,9.1,12.6,18.2,18.7,26.9c35.2,51.2,65.5,95.5,104.4,102.2c20.9,3.6,43.5-3.8,69-22.6
	c42.6-31.5,70.7-78.1,79.1-131.2c8.4-53.1-3.9-106.4-34.7-150c-30.8-43.6-76.2-72.4-128.1-81C191.7,14.2,181.1,13.3,170.5,13.3z"/>
<path class="st0" d="M229.5,415c-3.9,0-7.7-0.3-11.4-1c-42-7.2-74.3-54.4-111.8-108.9c-6.3-9.3-12.9-18.8-19.7-28.4
	c-6.8-9.6-13.6-19-20.2-28.1C27.7,195-5.7,148.7,0.8,105.6c3.6-23.4,18.6-44.6,46-64.8C92.4,7.1,148-6.4,203.4,2.8
	c55.4,9.2,104,39.9,136.9,86.5c32.8,46.6,46,103.6,37,160.3c-9,56.7-39,106.5-84.5,140.1C269.8,406.7,249,415,229.5,415z M169.4,2.4
	C126.1,2.4,84,16.2,48.3,42.7C21.4,62.5,6.6,83.2,3.2,105.9C-3.2,148,30,194,68.4,247.1c6.6,9.1,13.4,18.5,20.2,28.1
	c6.8,9.6,13.3,19.2,19.7,28.5c37.1,54.1,69.2,100.9,110.2,107.9c22.1,3.8,46-4,72.9-23.8c45-33.2,74.7-82.5,83.6-138.6
	c8.9-56.1-4.1-112.4-36.6-158.5C305.9,44.7,257.8,14.3,203,5.2C191.8,3.3,180.6,2.4,169.4,2.4z"/>
</svg>
