<svg width="24" height="22" viewBox="0 0 24 22" fill="none" xmlns="http://www.w3.org/2000/svg">
<path d="M23.625 15.875L19.875 12.125C19.1719 11.4219 18 11.8906 18 12.9219V14.75H16.5L14.0156 12.125L11.4844 14.7969L14.8125 18.3594C14.9062 18.4531 15.0469 18.5 15.2344 18.5H18V20.375C18 21.4062 19.1719 21.875 19.875 21.1719L23.625 17.4219C24.0938 17 24.0938 16.2969 23.625 15.875ZM0.5625 7.25H4.5L6.9375 9.92188L9.46875 7.25L6.14062 3.6875C6.04688 3.59375 5.90625 3.5 5.71875 3.5H0.5625C0.234375 3.5 0 3.78125 0 4.0625V6.6875C0 7.01562 0.234375 7.25 0.5625 7.25ZM18 7.25V9.125C18 10.1562 19.1719 10.625 19.875 9.92188L23.625 6.17188C24.0938 5.75 24.0938 5.04688 23.625 4.625L19.875 0.875C19.1719 0.171875 18 0.640625 18 1.67188V3.5H15.2344C15.0469 3.5 14.9062 3.59375 14.8125 3.6875L4.5 14.75H0.5625C0.234375 14.75 0 15.0312 0 15.3125V17.9375C0 18.2656 0.234375 18.5 0.5625 18.5H5.71875C5.90625 18.5 6.04688 18.4531 6.14062 18.3594L16.5 7.25H18Z" fill="white"/>
</svg>
