<svg width="21" height="24" viewBox="0 0 21 24" fill="none" xmlns="http://www.w3.org/2000/svg">
<path d="M16.5 15C15.4219 15 14.4375 15.375 13.6875 15.9844L8.85938 12.9844C8.95312 12.7031 8.95312 12.375 8.95312 12C8.95312 11.6719 8.95312 11.3438 8.85938 11.0625L13.6875 8.0625C14.4375 8.67188 15.4219 9 16.5 9C18.9844 9 21 7.03125 21 4.5C21 2.01562 18.9844 0 16.5 0C13.9688 0 12 2.01562 12 4.5C12 4.875 12 5.20312 12.0938 5.48438L7.26562 8.48438C6.51562 7.875 5.53125 7.5 4.5 7.5C1.96875 7.5 0 9.51562 0 12C0 14.5312 1.96875 16.5 4.5 16.5C5.53125 16.5 6.51562 16.1719 7.26562 15.5625L12.0938 18.5625C12 18.8438 12 19.1719 12 19.5469V19.5C12 22.0312 13.9688 24 16.5 24C18.9844 24 21 22.0312 21 19.5C21 17.0156 18.9844 15 16.5 15Z" fill="white"/>
</svg>
